<?xml version="1.0" standalone="no"?>
<!DOCTYPE svg PUBLIC "-//W3C//DTD SVG 20010904//EN"
 "http://www.w3.org/TR/2001/REC-SVG-20010904/DTD/svg10.dtd">
<svg version="1.0" xmlns="http://www.w3.org/2000/svg"
 width="1600.000000pt" height="1600.000000pt" viewBox="0 0 1600.000000 1600.000000"
 preserveAspectRatio="xMidYMid meet">
<metadata>
Created by potrace 1.11, written by Peter Selinger 2001-2013
</metadata>
<g transform="translate(0.000000,1600.000000) scale(0.100000,-0.100000)"
fill="#000000" stroke="none">
<path d="M0 8000 l0 -8000 5416 0 5415 0 -7 23 c-19 59 -181 412 -310 676 -80
162 -141 297 -137 301 4 4 49 34 98 67 328 220 643 556 887 948 80 129 135
228 225 410 199 396 324 720 623 1610 82 242 187 555 235 695 143 423 200 709
220 1105 7 139 -9 456 -31 598 -8 54 -12 102 -9 107 2 4 31 11 62 15 204 24
510 115 709 209 704 335 1064 1016 1013 1915 -5 96 -16 220 -24 275 -124 834
-532 1702 -1146 2436 -194 232 -548 570 -636 606 -42 18 -115 18 -156 0 -39
-17 -92 -71 -106 -109 -29 -75 -9 -128 105 -281 305 -410 580 -975 723 -1491
83 -296 119 -521 128 -785 9 -302 -27 -503 -129 -710 -44 -92 -62 -116 -142
-196 -133 -132 -249 -188 -456 -219 -151 -23 -340 -18 -537 16 -59 10 -63 13
-101 67 -115 163 -332 368 -567 539 -582 422 -1376 744 -2097 852 -268 40
-351 46 -638 45 -306 0 -434 -11 -683 -60 -71 -14 -131 -23 -135 -19 -9 8 16
238 38 361 119 644 449 1304 926 1844 599 680 1347 1083 2116 1139 981 72
1891 -236 2858 -968 343 -259 583 -468 1280 -1111 564 -520 903 -823 956 -853
12 -7 14 412 14 2968 l0 2975 -8000 0 -8000 0 0 -8000z m3888 4935 c47 -20 79
-50 104 -99 26 -51 21 -97 -26 -256 -43 -146 -88 -351 -113 -517 -22 -148 -25
-580 -5 -718 38 -260 109 -515 207 -738 295 -670 915 -1234 1683 -1531 209
-81 394 -138 557 -171 44 -9 86 -19 94 -21 9 -3 -3 -22 -37 -58 -69 -73 -117
-150 -157 -254 -92 -239 -133 -582 -121 -1024 5 -195 3 -248 -6 -248 -28 0
-251 61 -368 100 -1205 405 -2236 1493 -2574 2715 -194 701 -163 1356 96 2010
113 287 402 757 489 797 19 9 41 18 49 21 30 11 91 7 128 -8z m5192 -3610
c916 -119 1855 -547 2390 -1087 137 -139 185 -210 331 -492 239 -463 370 -862
446 -1356 14 -91 17 -179 18 -420 0 -328 -11 -436 -71 -704 -45 -200 -54 -229
-496 -1516 -274 -799 -511 -1306 -797 -1705 -355 -495 -793 -821 -1319 -981
-424 -129 -662 -113 -1012 67 -390 201 -711 562 -859 967 -63 171 -99 414 -86
587 3 50 17 230 30 400 73 944 55 1236 -94 1540 -66 134 -131 209 -312 361
-272 228 -336 305 -413 497 -199 496 -384 1681 -362 2323 15 455 81 710 204
790 15 10 52 41 82 69 70 65 213 177 310 242 342 227 766 377 1190 422 58 6
119 13 135 15 75 10 568 -3 685 -19z"/>
</g>
</svg>
