<?xml version="1.0" encoding="UTF-8" standalone="no"?>
<!DOCTYPE svg PUBLIC "-//W3C//DTD SVG 1.1//EN" "http://www.w3.org/Graphics/SVG/1.1/DTD/svg11.dtd">
<svg viewBox="0 0 260 90" version="1.1" xmlns="http://www.w3.org/2000/svg" xmlns:xlink="http://www.w3.org/1999/xlink" xml:space="preserve" style="fill-rule:evenodd;clip-rule:evenodd;stroke-linejoin:round;stroke-miterlimit:1.41421;">
    <path d="M137.331,32.535C135.192,31.881 133.335,30.613 132.104,28.894C130.893,27.193 130.309,25.032 130.716,22.592C130.81,22.054 130.945,21.487 131.133,20.92C131.217,20.68 131.123,20.411 130.904,20.267C130.632,20.075 130.246,20.133 130.037,20.392C128.984,21.775 128.378,23.235 128.128,24.705C127.763,26.896 128.201,29.095 129.171,31.055C130.142,33.005 131.644,34.725 133.418,35.964C134.712,36.867 136.152,37.52 137.634,37.828C137.613,37.53 137.603,37.242 137.592,36.954C137.561,35.253 137.78,33.745 138.417,33.101C138.49,33.025 138.573,32.948 138.657,32.871C138.208,32.794 137.759,32.679 137.321,32.544L137.331,32.535ZM139.46,33.783C139.418,33.822 139.377,33.86 139.335,33.908C138.865,34.389 138.803,36.204 138.865,37.357C138.928,38.76 139.45,42.833 140.274,44.072C140.545,44.475 141.203,44.985 141.589,45.302C142.904,46.406 142.757,48.385 142.538,51.046C142.507,51.421 142.476,51.796 142.455,52.122C142.424,52.583 142.455,53.035 142.538,53.448C142.789,54.61 143.467,55.619 144.312,56.349C145.147,57.07 146.118,57.512 146.994,57.569C147.224,57.579 147.432,57.569 147.631,57.531C152.629,56.551 154.121,52.093 155.644,47.53C155.895,46.781 156.145,46.041 156.375,45.398C157.147,43.236 157.084,41.257 156.698,39.595C156.312,37.914 155.603,36.56 155.112,35.695C154.914,35.34 154.58,34.955 154.152,34.571C152.89,33.428 150.803,32.304 148.476,31.747C146.17,31.199 143.634,31.219 141.432,32.362C140.754,32.717 140.097,33.188 139.481,33.783L139.46,33.783ZM143.071,30.498C144.959,30.056 146.931,30.162 148.758,30.604C151.304,31.209 153.589,32.458 154.987,33.716C155.415,34.11 155.78,34.504 156.031,34.898C156.959,35.08 157.711,35.071 158.295,34.907C159.036,34.706 159.537,34.235 159.829,33.591C160.152,32.89 160.246,31.977 160.152,30.959C159.975,28.999 159.098,26.703 157.815,24.763C157.773,24.696 157.251,24.023 157.262,24.014C157.105,23.802 157.105,23.504 157.293,23.293C157.512,23.043 157.909,23.015 158.17,23.226C160.319,24.974 162.125,27.674 163.032,30.392C163.596,32.073 163.815,33.764 163.575,35.263C163.325,36.819 162.573,38.174 161.196,39.086C160.371,39.624 159.338,40.008 158.055,40.172C158.326,41.834 158.274,43.736 157.533,45.792C157.262,46.55 157.032,47.233 156.813,47.905C155.53,51.757 154.267,55.533 151.011,57.512C151.721,58.828 152.462,60.49 153.14,62.219C154.152,64.764 155.05,67.368 155.864,69.99L159.004,70C159.057,68.108 158.462,66.522 157.867,64.918C157.272,63.314 156.667,61.681 156.615,59.663C156.604,59.337 156.876,59.068 157.22,59.058C157.564,59.049 157.846,59.308 157.846,59.635C157.888,61.45 158.462,62.987 159.025,64.515C159.662,66.225 160.288,67.906 160.236,69.99L165.871,69.99C165.985,67.973 165.37,66.311 164.744,64.63C164.149,63.026 163.544,61.393 163.491,59.375C163.471,58.616 163.418,57.425 163.366,56.013C163.335,55.187 163.293,54.274 163.251,53.275C163.241,52.948 163.502,52.67 163.846,52.66C164.191,52.651 164.472,52.9 164.483,53.227C164.514,54.168 164.556,55.11 164.598,55.965C164.66,57.367 164.702,58.539 164.723,59.346C164.765,61.162 165.338,62.699 165.902,64.226C166.559,66.004 167.217,67.762 167.102,69.981L172.893,69.981L172.893,69.942C173.071,67.819 172.434,66.09 171.777,64.342C171.182,62.737 170.577,61.104 170.525,59.087C170.504,58.328 170.462,57.137 170.399,55.725C170.368,54.899 170.326,53.986 170.285,52.987C170.274,52.66 170.545,52.382 170.879,52.372C171.224,52.362 171.505,52.612 171.516,52.939C171.558,53.88 171.589,54.822 171.631,55.677C171.693,57.079 171.745,58.251 171.756,59.058C171.798,60.874 172.371,62.411 172.935,63.938C173.624,65.792 174.302,67.618 174.114,69.971L179.801,69.971L179.801,69.933C179.978,67.81 179.342,66.081 178.685,64.332C178.09,62.728 177.485,61.095 177.432,59.087C177.412,58.328 177.359,57.137 177.307,55.725C177.276,54.899 177.234,53.986 177.192,52.987C177.182,52.66 177.443,52.391 177.787,52.372C178.132,52.362 178.413,52.622 178.424,52.948C178.465,53.89 178.497,54.831 178.538,55.686C178.601,57.089 178.643,58.261 178.664,59.077C178.705,60.893 179.279,62.43 179.843,63.958C180.532,65.812 181.21,67.646 181.022,69.99L186.698,69.99L186.698,69.952C186.886,67.829 186.239,66.1 185.592,64.351C184.998,62.747 184.392,61.114 184.34,59.097C184.319,58.338 184.278,57.146 184.215,55.734C184.184,54.908 184.142,53.996 184.1,52.996C184.09,52.67 184.351,52.401 184.695,52.391C185.039,52.382 185.321,52.631 185.332,52.958C185.373,53.899 185.405,54.841 185.446,55.696C185.509,57.098 185.551,58.27 185.572,59.077C185.613,60.893 186.187,62.43 186.751,63.958C187.439,65.812 188.118,67.637 187.94,69.99L193.585,69.99L193.585,69.952C193.763,67.829 193.116,66.1 192.469,64.351C191.874,62.747 191.269,61.114 191.217,59.097C191.196,58.338 191.154,57.156 191.092,55.734C191.06,54.899 191.018,53.996 190.977,52.996C190.966,52.67 191.227,52.391 191.572,52.382C191.916,52.372 192.198,52.622 192.208,52.948C192.239,53.89 192.281,54.831 192.323,55.686C192.385,57.089 192.427,58.261 192.448,59.077C192.49,60.893 193.064,62.43 193.627,63.958C194.316,65.812 194.994,67.637 194.817,69.981L198.323,69.99L198.312,69.769C198.125,65.581 195.036,51.056 193.325,46.474C192.813,45.11 192.177,43.851 191.436,43.025C186.949,38.106 183.85,36.896 180.041,35.417C177.505,34.427 174.657,33.322 170.879,30.901C168.98,29.691 167.269,28.096 165.558,26.502C161.864,23.072 158.201,19.662 152.671,20.027C150.114,20.2 147.787,21.612 146.065,23.562C144.291,25.56 143.133,28.135 143.018,30.488L143.071,30.498Z" style="fill:#fff;fill-rule:nonzero;"/>
    <g transform="matrix(5.83921,0,0,5.86771,-732.956,-316.069)">
        <path d="M130.322,61.098L131.605,57.266L133.48,57.266L131.195,62.703L131.195,65.797L129.449,65.797L129.449,62.703L127.158,57.266L129.033,57.266L130.322,61.098Z" style="fill:none;"/>
        <path d="M137.453,64.051L135.104,64.051L134.647,65.797L132.824,65.797L135.49,57.266L137.066,57.266L139.75,65.797L137.91,65.797L137.453,64.051ZM135.479,62.615L137.072,62.615L136.275,59.574L135.479,62.615Z" style="fill:none;"/>
        <path d="M142.949,62.504L142.27,63.36L142.27,65.797L140.547,65.797L140.547,57.266L142.27,57.266L142.27,60.987L142.814,60.067L144.402,57.266L146.512,57.266L144.068,61.016L146.553,65.797L144.508,65.797L142.949,62.504Z" style="fill:none;"/>
        <path d="M162.678,59.457L162.678,66.137C162.678,66.86 162.512,67.41 162.18,67.789C161.848,68.168 161.377,68.358 160.768,68.358C160.639,68.358 160.514,68.35 160.393,68.334C160.272,68.319 160.147,68.293 160.018,68.258L160.012,66.905C160.094,66.92 160.171,66.933 160.243,66.943C160.315,66.952 160.385,66.957 160.451,66.957C160.639,66.957 160.779,66.892 160.873,66.761C160.967,66.63 161.014,66.422 161.014,66.137L161.014,59.457L162.678,59.457ZM160.902,57.817C160.902,57.688 160.924,57.57 160.967,57.462C161.01,57.355 161.07,57.262 161.148,57.184C161.227,57.106 161.321,57.045 161.433,57.002C161.544,56.959 161.668,56.938 161.805,56.938C161.941,56.938 162.065,56.959 162.177,57.002C162.288,57.045 162.383,57.106 162.461,57.184C162.539,57.262 162.6,57.355 162.643,57.462C162.686,57.57 162.707,57.688 162.707,57.817C162.707,57.946 162.686,58.064 162.643,58.171C162.6,58.279 162.539,58.372 162.461,58.452C162.383,58.532 162.288,58.594 162.177,58.637C162.065,58.68 161.941,58.701 161.805,58.701C161.668,58.701 161.544,58.68 161.433,58.637C161.321,58.594 161.227,58.532 161.148,58.452C161.07,58.372 161.01,58.279 160.967,58.171C160.924,58.064 160.902,57.946 160.902,57.817Z" style="fill:none;"/>
        <path d="M166.686,64.098C166.686,64.016 166.665,63.941 166.624,63.872C166.583,63.804 166.519,63.736 166.431,63.667C166.343,63.599 166.229,63.53 166.088,63.459C165.947,63.389 165.779,63.311 165.584,63.225C165.295,63.108 165.039,62.988 164.816,62.865C164.594,62.741 164.406,62.603 164.254,62.448C164.102,62.294 163.986,62.12 163.908,61.927C163.83,61.734 163.791,61.51 163.791,61.256C163.791,60.99 163.841,60.741 163.94,60.509C164.04,60.277 164.184,60.073 164.371,59.9C164.559,59.726 164.788,59.589 165.06,59.49C165.331,59.39 165.639,59.34 165.982,59.34C166.338,59.34 166.657,59.388 166.94,59.484C167.224,59.579 167.465,59.714 167.664,59.888C167.863,60.062 168.016,60.271 168.121,60.515C168.227,60.759 168.279,61.03 168.279,61.326L166.621,61.326C166.621,61.084 166.572,60.895 166.475,60.758C166.377,60.621 166.211,60.553 165.977,60.553C165.801,60.553 165.656,60.608 165.543,60.717C165.43,60.826 165.373,60.979 165.373,61.174C165.373,61.256 165.392,61.329 165.429,61.394C165.466,61.458 165.526,61.522 165.61,61.584C165.694,61.647 165.805,61.711 165.941,61.778C166.078,61.844 166.246,61.92 166.445,62.006C166.762,62.123 167.036,62.246 167.269,62.375C167.501,62.504 167.693,62.648 167.846,62.806C167.998,62.964 168.111,63.143 168.186,63.342C168.26,63.541 168.297,63.772 168.297,64.033C168.297,64.315 168.242,64.571 168.133,64.801C168.023,65.031 167.868,65.229 167.667,65.393C167.466,65.557 167.223,65.685 166.938,65.777C166.652,65.868 166.334,65.914 165.982,65.914C165.596,65.914 165.255,65.855 164.96,65.736C164.665,65.616 164.418,65.458 164.219,65.261C164.02,65.064 163.869,64.841 163.768,64.593C163.666,64.345 163.615,64.092 163.615,63.834L165.191,63.834C165.195,64.006 165.219,64.148 165.262,64.259C165.305,64.37 165.362,64.459 165.435,64.526C165.507,64.592 165.593,64.638 165.692,64.663C165.792,64.689 165.9,64.701 166.018,64.701C166.463,64.701 166.686,64.5 166.686,64.098Z" style="fill:none;"/>
        <path d="M130.322,61.098L131.605,57.266L133.48,57.266L131.195,62.703L131.195,65.797L129.449,65.797L129.449,62.703L127.158,57.266L129.033,57.266L130.322,61.098Z" style="fill:#fff;fill-rule:nonzero;"/>
        <path d="M137.453,64.051L135.104,64.051L134.647,65.797L132.824,65.797L135.49,57.266L137.066,57.266L139.75,65.797L137.91,65.797L137.453,64.051ZM135.479,62.615L137.072,62.615L136.275,59.574L135.479,62.615Z" style="fill:#fff;fill-rule:nonzero;"/>
        <path d="M142.949,62.504L142.27,63.36L142.27,65.797L140.547,65.797L140.547,57.266L142.27,57.266L142.27,60.987L142.814,60.067L144.402,57.266L146.512,57.266L144.068,61.016L146.553,65.797L144.508,65.797L142.949,62.504Z" style="fill:#fff;fill-rule:nonzero;"/>
        <path d="M162.678,59.457L162.678,66.137C162.678,66.86 162.512,67.41 162.18,67.789C161.848,68.168 161.377,68.358 160.768,68.358C160.639,68.358 160.514,68.35 160.393,68.334C160.272,68.319 160.147,68.293 160.018,68.258L160.012,66.905C160.094,66.92 160.171,66.933 160.243,66.943C160.315,66.952 160.385,66.957 160.451,66.957C160.639,66.957 160.779,66.892 160.873,66.761C160.967,66.63 161.014,66.422 161.014,66.137L161.014,59.457L162.678,59.457ZM160.902,57.817C160.902,57.688 160.924,57.57 160.967,57.462C161.01,57.355 161.07,57.262 161.148,57.184C161.227,57.106 161.321,57.045 161.433,57.002C161.544,56.959 161.668,56.938 161.805,56.938C161.941,56.938 162.065,56.959 162.177,57.002C162.288,57.045 162.383,57.106 162.461,57.184C162.539,57.262 162.6,57.355 162.643,57.462C162.686,57.57 162.707,57.688 162.707,57.817C162.707,57.946 162.686,58.064 162.643,58.171C162.6,58.279 162.539,58.372 162.461,58.452C162.383,58.532 162.288,58.594 162.177,58.637C162.065,58.68 161.941,58.701 161.805,58.701C161.668,58.701 161.544,58.68 161.433,58.637C161.321,58.594 161.227,58.532 161.148,58.452C161.07,58.372 161.01,58.279 160.967,58.171C160.924,58.064 160.902,57.946 160.902,57.817Z" style="fill:#fff;fill-rule:nonzero;"/>
        <path d="M166.686,64.098C166.686,64.016 166.665,63.941 166.624,63.872C166.583,63.804 166.519,63.736 166.431,63.667C166.343,63.599 166.229,63.53 166.088,63.459C165.947,63.389 165.779,63.311 165.584,63.225C165.295,63.108 165.039,62.988 164.816,62.865C164.594,62.741 164.406,62.603 164.254,62.448C164.102,62.294 163.986,62.12 163.908,61.927C163.83,61.734 163.791,61.51 163.791,61.256C163.791,60.99 163.841,60.741 163.94,60.509C164.04,60.277 164.184,60.073 164.371,59.9C164.559,59.726 164.788,59.589 165.06,59.49C165.331,59.39 165.639,59.34 165.982,59.34C166.338,59.34 166.657,59.388 166.94,59.484C167.224,59.579 167.465,59.714 167.664,59.888C167.863,60.062 168.016,60.271 168.121,60.515C168.227,60.759 168.279,61.03 168.279,61.326L166.621,61.326C166.621,61.084 166.572,60.895 166.475,60.758C166.377,60.621 166.211,60.553 165.977,60.553C165.801,60.553 165.656,60.608 165.543,60.717C165.43,60.826 165.373,60.979 165.373,61.174C165.373,61.256 165.392,61.329 165.429,61.394C165.466,61.458 165.526,61.522 165.61,61.584C165.694,61.647 165.805,61.711 165.941,61.778C166.078,61.844 166.246,61.92 166.445,62.006C166.762,62.123 167.036,62.246 167.269,62.375C167.501,62.504 167.693,62.648 167.846,62.806C167.998,62.964 168.111,63.143 168.186,63.342C168.26,63.541 168.297,63.772 168.297,64.033C168.297,64.315 168.242,64.571 168.133,64.801C168.023,65.031 167.868,65.229 167.667,65.393C167.466,65.557 167.223,65.685 166.938,65.777C166.652,65.868 166.334,65.914 165.982,65.914C165.596,65.914 165.255,65.855 164.96,65.736C164.665,65.616 164.418,65.458 164.219,65.261C164.02,65.064 163.869,64.841 163.768,64.593C163.666,64.345 163.615,64.092 163.615,63.834L165.191,63.834C165.195,64.006 165.219,64.148 165.262,64.259C165.305,64.37 165.362,64.459 165.435,64.526C165.507,64.592 165.593,64.638 165.692,64.663C165.792,64.689 165.9,64.701 166.018,64.701C166.463,64.701 166.686,64.5 166.686,64.098Z" style="fill:#fff;fill-rule:nonzero;"/>
    </g>
</svg>
