<?xml version="1.0" encoding="utf-8"?>
<!-- Generated by IcoMoon.io -->
<!DOCTYPE svg PUBLIC "-//W3C//DTD SVG 1.1//EN" "http://www.w3.org/Graphics/SVG/1.1/DTD/svg11.dtd">
<svg version="1.1" xmlns="http://www.w3.org/2000/svg" xmlns:xlink="http://www.w3.org/1999/xlink" viewBox="0 0 14 16">
	<path d="M9.143 8q0-0.946-0.67-1.616t-1.616-0.67-1.616 0.67-0.67 1.616 0.67 1.616 1.616 0.67 1.616-0.67 0.67-1.616zM13.714 7.027v1.982q0 0.107-0.071 0.205t-0.179 0.116l-1.652 0.25q-0.17 0.482-0.348 0.813 0.313 0.446 0.955 1.232 0.089 0.107 0.089 0.223t-0.080 0.205q-0.241 0.33-0.884 0.964t-0.839 0.634q-0.107 0-0.232-0.080l-1.232-0.964q-0.393 0.205-0.813 0.339-0.143 1.214-0.259 1.661-0.063 0.25-0.321 0.25h-1.982q-0.125 0-0.219-0.076t-0.103-0.192l-0.25-1.643q-0.438-0.143-0.804-0.33l-1.259 0.955q-0.089 0.080-0.223 0.080-0.125 0-0.223-0.098-1.125-1.018-1.473-1.5-0.063-0.089-0.063-0.205 0-0.107 0.071-0.205 0.134-0.188 0.455-0.594t0.482-0.629q-0.241-0.446-0.366-0.884l-1.634-0.241q-0.116-0.018-0.188-0.112t-0.071-0.21v-1.982q0-0.107 0.071-0.205t0.17-0.116l1.661-0.25q0.125-0.411 0.348-0.821-0.357-0.509-0.955-1.232-0.089-0.107-0.089-0.214 0-0.089 0.080-0.205 0.232-0.321 0.879-0.96t0.844-0.638q0.116 0 0.232 0.089l1.232 0.955q0.393-0.205 0.813-0.339 0.143-1.214 0.259-1.661 0.063-0.25 0.321-0.25h1.982q0.125 0 0.219 0.076t0.103 0.192l0.25 1.643q0.438 0.143 0.804 0.33l1.268-0.955q0.080-0.080 0.214-0.080 0.116 0 0.223 0.089 1.152 1.063 1.473 1.518 0.063 0.071 0.063 0.196 0 0.107-0.071 0.205-0.134 0.188-0.455 0.594t-0.482 0.629q0.232 0.446 0.366 0.875l1.634 0.25q0.116 0.018 0.188 0.112t0.071 0.21z" fill="#000000" />
</svg>
