<svg xmlns="http://www.w3.org/2000/svg" viewBox="0 0 24 24"><path fill="#fff" d="M17.73 12.02l3.98-3.98c.39-.39.39-1.025 0-1.415L17.375 2.29a1.002 1.002 0 0 0-1.415 0l-3.98 3.98L8 2.295C7.805 2.1 7.55 2 7.295 2s-.51.1-.705.295L2.25 6.63c-.39.39-.39 1.025 0 1.415l3.98 3.98L2.25 16c-.39.39-.39 1.025 0 1.415l4.335 4.335c.39.39 1.025.39 1.415 0l3.98-3.98 3.98 3.98c.195.195.45.295.705.295s.51-.1.705-.295l4.335-4.335c.39-.39.39-1.025 0-1.415l-3.975-3.98zM12 9c.55 0 1 .45 1 1s-.45 1-1 1-1-.45-1-1 .45-1 1-1zm-4.71 1.96L3.665 7.335l3.63-3.63L10.92 7.33l-3.63 3.63zM10 13c-.55 0-1-.45-1-1s.45-1 1-1 1 .45 1 1-.45 1-1 1zm2 2c-.55 0-1-.45-1-1s.45-1 1-1 1 .45 1 1-.45 1-1 1zm2-4c.55 0 1 .45 1 1s-.45 1-1 1-1-.45-1-1 .45-1 1-1zm2.665 9.335L13.04 16.71l3.63-3.63 3.625 3.625-3.63 3.63z"/></svg>