<?xml version="1.0" encoding="utf-8"?>
<!-- Generated by IcoMoon.io -->
<!DOCTYPE svg PUBLIC "-//W3C//DTD SVG 1.1//EN" "http://www.w3.org/Graphics/SVG/1.1/DTD/svg11.dtd">
<svg version="1.1" xmlns="http://www.w3.org/2000/svg" xmlns:xlink="http://www.w3.org/1999/xlink" viewBox="0 0 15 16">
	<path d="M14.857 9.804q0 0.723-0.397 1.205t-1.103 0.482q-0.366 0-0.692-0.156t-0.527-0.339-0.504-0.339-0.634-0.156q-0.982 0-0.982 1.107 0 0.348 0.143 1.027t0.134 1.027v0.045q-0.196 0-0.295 0.009-0.304 0.027-0.871 0.103t-1.031 0.121-0.875 0.045q-0.545 0-0.92-0.237t-0.375-0.746q0-0.33 0.156-0.634t0.339-0.504 0.339-0.527 0.156-0.692q0-0.705-0.482-1.103t-1.205-0.397q-0.75 0-1.277 0.406t-0.527 1.138q0 0.384 0.134 0.741t0.299 0.576 0.299 0.473 0.134 0.451q0 0.402-0.411 0.795-0.33 0.313-1.045 0.313-0.848 0-2.188-0.214-0.080-0.018-0.246-0.036t-0.246-0.036l-0.116-0.018q-0.009 0-0.027-0.009-0.018 0-0.018-0.009v-9.143q0.018 0.009 0.156 0.031t0.304 0.045 0.192 0.031q1.339 0.214 2.188 0.214 0.714 0 1.045-0.313 0.411-0.393 0.411-0.795 0-0.196-0.134-0.451t-0.299-0.473-0.299-0.576-0.134-0.741q0-0.732 0.527-1.138t1.286-0.406q0.714 0 1.196 0.397t0.482 1.103q0 0.366-0.156 0.692t-0.339 0.527-0.339 0.504-0.156 0.634q0 0.509 0.375 0.746t0.92 0.237q0.571 0 1.607-0.134t1.455-0.152v0.018q-0.009 0.018-0.031 0.156t-0.045 0.304-0.031 0.192q-0.214 1.339-0.214 2.188 0 0.714 0.313 1.045 0.393 0.411 0.795 0.411 0.196 0 0.451-0.134t0.473-0.299 0.576-0.299 0.741-0.134q0.732 0 1.138 0.527t0.406 1.277z" fill="#AFB42B" />
</svg>
