<?xml version="1.0" encoding="utf-8"?>
<!DOCTYPE svg PUBLIC "-//W3C//DTD SVG 1.1//EN" "http://www.w3.org/Graphics/SVG/1.1/DTD/svg11.dtd">
<svg version="1.1" xmlns="http://www.w3.org/2000/svg" xmlns:xlink="http://www.w3.org/1999/xlink" viewBox="0 0 64 64">
 <defs>
  <style type="text/css">
   <![CDATA[
    .fil0 {fill:white}
   ]]>
  </style>
 </defs>
 <g>
  <polygon class="fil0" points="29,42 31,48 38,48 33,52 35,58 29,54 24,58 26,52 21,48 28,48 "/>
  <polygon class="fil0" points="53,16 55,22 62,22 56,26 58,32 53,28 48,32 50,26 45,22 51,22 "/>
  <polygon class="fil0" points="13,8 15,14 21,14 16,18 18,24 13,20 8,24 10,18 4,14 11,14 "/>
 </g>
</svg>
