<svg xmlns:svg="http://www.w3.org/2000/svg" xmlns="http://www.w3.org/2000/svg" width="64" height="64" viewBox="0 0 800 800" version="1.1"><defs><pattern y="0" x="0" height="6" width="6" patternUnits="userSpaceOnUse"/></defs><g transform="translate(0,-252.36235)"><g transform="translate(12.587692,-13.977128)"><path d="M139.5 519.9C119 513.1 101.2 499.9 89.4 482 77.8 464.3 72.2 441.8 76.1 416.4c0.9-5.6 2.2-11.5 4-17.4 0.8-2.5-0.1-5.3-2.2-6.8-2.6-2-6.3-1.4-8.3 1.3-10.1 14.4-15.9 29.6-18.3 44.9-3.5 22.8 0.7 45.7 10 66.1 9.3 20.3 23.7 38.2 40.7 51.1 12.4 9.4 26.2 16.2 40.4 19.4-0.2-3.1-0.3-6.1-0.4-9.1-0.3-17.7 1.8-33.4 7.9-40.1 0.7-0.8 1.5-1.6 2.3-2.4-4.3-0.8-8.6-2-12.8-3.4zM159.9 532.9 159.9 532.9 159.9 532.9c-0.4 0.4-0.8 0.8-1.2 1.3-4.5 5-5.1 23.9-4.5 35.9 0.6 14.6 5.6 57 13.5 69.9 2.6 4.2 8.9 9.5 12.6 12.8 12.6 11.5 11.2 32.1 9.1 59.8-0.3 3.9-0.6 7.8-0.8 11.2-0.3 4.8 0 9.5 0.8 13.8 2.4 12.1 8.9 22.6 17 30.2 8 7.5 17.3 12.1 25.7 12.7 2.2 0.1 4.2 0 6.1-0.4 47.9-10.2 62.2-56.6 76.8-104.1 2.4-7.8 4.8-15.5 7-22.2 7.4-22.5 6.8-43.1 3.1-60.4-3.7-17.5-10.5-31.6-15.2-40.6-1.9-3.7-5.1-7.7-9.2-11.7-12.1-11.9-32.1-23.6-54.4-29.4-22.1-5.7-46.4-5.5-67.5 6.4-6.5 3.7-12.8 8.6-18.7 14.8zM194.5 498.7c18.1-4.6 37-3.5 54.5 1.1 24.4 6.3 46.3 19.3 59.7 32.4 4.1 4.1 7.6 8.2 10 12.3 8.9 1.9 16.1 1.8 21.7 0.1 7.1-2.1 11.9-7 14.7-13.7 3.1-7.3 4-16.8 3.1-27.4-1.7-20.4-10.1-44.3-22.4-64.5-0.4-0.7-5.4-7.7-5.3-7.8-1.5-2.2-1.5-5.3 0.3-7.5 2.1-2.6 5.9-2.9 8.4-0.7 20.6 18.2 37.9 46.3 46.6 74.6 5.4 17.5 7.5 35.1 5.2 50.7-2.4 16.2-9.6 30.3-22.8 39.8-7.9 5.6-17.8 9.6-30.1 11.3 2.6 17.3 2.1 37.1-5 58.5-2.6 7.9-4.8 15-6.9 22-12.3 40.1-24.4 79.4-55.6 100 6.8 13.7 13.9 31 20.4 49 9.7 26.5 18.3 53.6 26.1 80.9l30.1 0.1c0.5-19.7-5.2-36.2-10.9-52.9-5.7-16.7-11.5-33.7-12-54.7-0.1-3.4 2.5-6.2 5.8-6.3 3.3-0.1 6 2.6 6 6 0.4 18.9 5.9 34.9 11.3 50.8 6.1 17.8 12.1 35.3 11.6 57l11.5 0-11.3 33.4 41.7 0 0-33.4 12.1 0c1.1-21-4.8-38.3-10.8-55.8-5.7-16.7-11.5-33.7-12-54.7-0.2-7.9-0.7-20.3-1.2-35-0.3-8.6-0.7-18.1-1.1-28.5-0.1-3.4 2.4-6.3 5.7-6.4 3.3-0.1 6 2.5 6.1 5.9 0.3 9.8 0.7 19.6 1.1 28.5 0.6 14.6 1 26.8 1.2 35.2 0.4 18.9 5.9 34.9 11.3 50.8 6.3 18.5 12.6 36.8 11.5 59.9l12.2 0-11.3 33.4 41.7 0 0-33.4 12.9 0 0-0.4c1.7-22.1-4.4-40.1-10.7-58.3-5.7-16.7-11.5-33.7-12-54.7-0.2-7.9-0.6-20.3-1.2-35-0.3-8.6-0.7-18.1-1.1-28.5-0.1-3.4 2.5-6.3 5.7-6.4 3.3-0.1 6 2.5 6.1 5.9 0.4 9.8 0.7 19.6 1.1 28.5 0.6 14.6 1.1 26.8 1.2 35.2 0.4 18.9 5.9 34.9 11.3 50.8 6.6 19.3 13.1 38.3 11.3 62.8l54.5 0 0-0.4c1.7-22.1-4.4-40.1-10.7-58.3-5.7-16.7-11.5-33.7-12-54.6-0.2-7.9-0.7-20.3-1.2-35-0.3-8.6-0.7-18.1-1.1-28.5-0.1-3.4 2.4-6.2 5.7-6.4 3.3-0.1 6 2.6 6.1 6 0.4 9.8 0.7 19.6 1.1 28.5 0.6 14.6 1 26.8 1.2 35.3 0.4 18.9 5.9 34.9 11.3 50.8 6.6 19.3 13.1 38.4 11.3 62.8l11.1 0-11.3 33.5 41.7 0 0-33.5 12.9 0 0-0.4c1.8-22.1-4.4-40.1-10.6-58.3-5.7-16.7-11.5-33.7-12-54.7-0.2-7.9-0.6-20.3-1.2-35-0.3-8.6-0.7-18.1-1.1-28.5-0.1-3.4 2.4-6.2 5.7-6.3 3.3-0.1 6 2.5 6.1 5.9 0.4 9.8 0.7 19.6 1.1 28.5 0.6 14.6 1 26.8 1.2 35.2 0.4 18.9 5.9 34.9 11.3 50.8 6.6 19.3 13.1 38.3 11.4 62.8l12.5 0-11.4 33.5 41.7 0 0-33.5 11.3 0 0-0.4c1.7-22.1-4.5-40.1-10.7-58.3-5.7-16.7-11.5-33.7-12-54.7-0.2-7.9-0.6-20.2-1.2-35-0.3-8.7-0.7-18.1-1.1-28.5-0.1-3.4 2.4-6.3 5.7-6.4 3.3-0.1 6 2.5 6.1 5.9 0.3 9.8 0.7 19.6 1.1 28.5 0.6 14.6 1 26.8 1.2 35.3 0.4 18.9 5.9 34.9 11.3 50.8 6.6 19.3 13.1 38.3 11.4 62.7l33.6 0.1-0.1-2.3c-1.8-43.6-31.4-194.8-47.8-242.5-4.9-14.2-11-27.3-18.1-35.9-43-51.2-72.7-63.8-109.2-79.2-24.3-10.3-51.6-21.8-87.8-47-18.2-12.6-34.6-29.2-51-45.8-35.4-35.7-70.5-71.2-123.5-67.4-24.5 1.8-46.8 16.5-63.3 36.8-17 20.8-28.1 47.6-29.2 72.1z" fill="#fff"/></g></g></svg>
